# Blender v2.81 (sub 16) OBJ File: ''
# www.blender.org
mtllib objtest.mtl
o Pyramid
v 1.000000 0.000000 0.000000
v 0.000000 0.000000 1.000000
v -1.000000 0.000000 0.000000
v 0.000000 0.000000 -1.000000
v 1.000000 0.100000 0.000000
v 0.000000 0.100000 1.000000
v -1.000000 0.100000 0.000000
v 0.000000 0.100000 -1.000000
v 0.900000 0.100000 0.000000
v 0.000000 0.100000 0.900000
v -0.900000 0.100000 0.000000
v 0.000000 0.100000 -0.900000
v 0.900000 0.200000 0.000000
v 0.000000 0.200000 0.900000
v -0.900000 0.200000 0.000000
v 0.000000 0.200000 -0.900000
v 0.800000 0.200000 0.000000
v 0.000000 0.200000 0.800000
v -0.800000 0.200000 0.000000
v 0.000000 0.200000 -0.800000
v 0.800000 0.300000 0.000000
v 0.000000 0.300000 0.800000
v -0.800000 0.300000 0.000000
v 0.000000 0.300000 -0.800000
v 0.700000 0.300000 0.000000
v 0.000000 0.300000 0.700000
v -0.700000 0.300000 0.000000
v 0.000000 0.300000 -0.700000
v 0.700000 0.400000 0.000000
v 0.000000 0.400000 0.700000
v -0.700000 0.400000 0.000000
v 0.000000 0.400000 -0.700000
v 0.600000 0.400000 0.000000
v 0.000000 0.400000 0.600000
v -0.600000 0.400000 0.000000
v 0.000000 0.400000 -0.600000
v 0.600000 0.500000 0.000000
v 0.000000 0.500000 0.600000
v -0.600000 0.500000 0.000000
v 0.000000 0.500000 -0.600000
v 0.500000 0.500000 0.000000
v 0.000000 0.500000 0.500000
v -0.500000 0.500000 0.000000
v 0.000000 0.500000 -0.500000
v 0.500000 0.600000 0.000000
v 0.000000 0.600000 0.500000
v -0.500000 0.600000 0.000000
v 0.000000 0.600000 -0.500000
v 0.400000 0.600000 0.000000
v 0.000000 0.600000 0.400000
v -0.400000 0.600000 0.000000
v 0.000000 0.600000 -0.400000
v 0.400000 0.700000 0.000000
v 0.000000 0.700000 0.400000
v -0.400000 0.700000 0.000000
v 0.000000 0.700000 -0.400000
v 0.300000 0.700000 0.000000
v 0.000000 0.700000 0.300000
v -0.300000 0.700000 0.000000
v 0.000000 0.700000 -0.300000
v 0.300000 0.800000 0.000000
v 0.000000 0.800000 0.300000
v -0.300000 0.800000 0.000000
v 0.000000 0.800000 -0.300000
v 0.200000 0.800000 0.000000
v 0.000000 0.800000 0.200000
v -0.200000 0.800000 0.000000
v 0.000000 0.800000 -0.200000
v 0.200000 0.900000 0.000000
v 0.000000 0.900000 0.200000
v -0.200000 0.900000 0.000000
v 0.000000 0.900000 -0.200000
v 0.100000 0.900000 0.000000
v 0.000000 0.900000 0.100000
v -0.100000 0.900000 0.000000
v 0.000000 0.900000 -0.100000
v 0.100000 1.000000 0.000000
v 0.000000 1.000000 0.100000
v -0.100000 1.000000 0.000000
v 0.000000 1.000000 -0.100000
vn 0.0000 -1.0000 0.0000
vn 0.0000 1.0000 0.0000
vn 0.7071 0.0000 0.7071
vn -0.7071 0.0000 0.7071
vn -0.7071 0.0000 -0.7071
vn 0.7071 0.0000 -0.7071
usemtl Material
s off
f 1//1 2//1 3//1 4//1
f 80//2 79//2 78//2 77//2
f 1//3 5//3 6//3 2//3
f 2//4 6//4 7//4 3//4
f 3//5 7//5 8//5 4//5
f 4//6 8//6 5//6 1//6
f 9//3 13//3 14//3 10//3
f 10//4 14//4 15//4 11//4
f 11//5 15//5 16//5 12//5
f 12//6 16//6 13//6 9//6
f 17//3 21//3 22//3 18//3
f 18//4 22//4 23//4 19//4
f 19//5 23//5 24//5 20//5
f 20//6 24//6 21//6 17//6
f 25//3 29//3 30//3 26//3
f 26//4 30//4 31//4 27//4
f 27//5 31//5 32//5 28//5
f 28//6 32//6 29//6 25//6
f 33//3 37//3 38//3 34//3
f 34//4 38//4 39//4 35//4
f 35//5 39//5 40//5 36//5
f 36//6 40//6 37//6 33//6
f 41//3 45//3 46//3 42//3
f 42//4 46//4 47//4 43//4
f 43//5 47//5 48//5 44//5
f 44//6 48//6 45//6 41//6
f 49//3 53//3 54//3 50//3
f 50//4 54//4 55//4 51//4
f 51//5 55//5 56//5 52//5
f 52//6 56//6 53//6 49//6
f 57//3 61//3 62//3 58//3
f 58//4 62//4 63//4 59//4
f 59//5 63//5 64//5 60//5
f 60//6 64//6 61//6 57//6
f 65//3 69//3 70//3 66//3
f 66//4 70//4 71//4 67//4
f 67//5 71//5 72//5 68//5
f 68//6 72//6 69//6 65//6
f 73//3 77//3 78//3 74//3
f 74//4 78//4 79//4 75//4
f 75//5 79//5 80//5 76//5
f 76//6 80//6 77//6 73//6
f 5//2 9//2 10//2 6//2
f 6//2 10//2 11//2 7//2
f 7//2 11//2 12//2 8//2
f 8//2 12//2 9//2 5//2
f 13//2 17//2 18//2 14//2
f 14//2 18//2 19//2 15//2
f 15//2 19//2 20//2 16//2
f 16//2 20//2 17//2 13//2
f 21//2 25//2 26//2 22//2
f 22//2 26//2 27//2 23//2
f 23//2 27//2 28//2 24//2
f 24//2 28//2 25//2 21//2
f 29//2 33//2 34//2 30//2
f 30//2 34//2 35//2 31//2
f 31//2 35//2 36//2 32//2
f 32//2 36//2 33//2 29//2
f 37//2 41//2 42//2 38//2
f 38//2 42//2 43//2 39//2
f 39//2 43//2 44//2 40//2
f 40//2 44//2 41//2 37//2
f 45//2 49//2 50//2 46//2
f 46//2 50//2 51//2 47//2
f 47//2 51//2 52//2 48//2
f 48//2 52//2 49//2 45//2
f 53//2 57//2 58//2 54//2
f 54//2 58//2 59//2 55//2
f 55//2 59//2 60//2 56//2
f 56//2 60//2 57//2 53//2
f 61//2 65//2 66//2 62//2
f 62//2 66//2 67//2 63//2
f 63//2 67//2 68//2 64//2
f 64//2 68//2 65//2 61//2
f 69//2 73//2 74//2 70//2
f 70//2 74//2 75//2 71//2
f 71//2 75//2 76//2 72//2
f 72//2 76//2 73//2 69//2
